HIERARCHY
ROOT RootJoint
{
    OFFSET   0.000000   0.000000   0.000000
    CHANNELS 6 Xposition Yposition Zposition Xrotation Yrotation Zrotation
    JOINT pelvis_lowerback
    {
        OFFSET   0.000000   0.093605   0.000000
        CHANNELS 3 Xrotation Yrotation Zrotation
        JOINT lowerback_torso
        {
            OFFSET   0.000000   0.100000   0.000000
            CHANNELS 3 Xrotation Yrotation Zrotation
            JOINT torso_head
            {
                OFFSET   0.000000   0.282350   0.000000
                CHANNELS 3 Xrotation Yrotation Zrotation
                End Site
                {
                    OFFSET   0.000000   0.192650   0.000000
                }
            }
            JOINT rTorso_Clavicle
            {
                OFFSET  -0.001000   0.157500   0.000000
                CHANNELS 3 Xrotation Yrotation Zrotation
                JOINT rShoulder
                {
                    OFFSET  -0.117647   0.000000   0.000000
                    CHANNELS 3 Xrotation Yrotation Zrotation
                    JOINT rElbow
                    {
                        OFFSET  -0.245000   0.000000   0.000000
                        CHANNELS 3 Xrotation Yrotation Zrotation
                        JOINT rWrist
                        {
                            OFFSET  -0.240000   0.000000   0.000000
                            CHANNELS 3 Xrotation Yrotation Zrotation
                            End Site
                            {
                                OFFSET  -0.116353  -0.002500   0.000000
                            }
                        }
                    }
                }
            }
            JOINT lTorso_Clavicle
            {
                OFFSET   0.001000   0.157500   0.000000
                CHANNELS 3 Xrotation Yrotation Zrotation
                JOINT lShoulder
                {
                    OFFSET   0.117647   0.000000   0.000000
                    CHANNELS 3 Xrotation Yrotation Zrotation
                    JOINT lElbow
                    {
                        OFFSET   0.245000   0.000000   0.000000
                        CHANNELS 3 Xrotation Yrotation Zrotation
                        JOINT lWrist
                        {
                            OFFSET   0.240000   0.000000   0.000000
                            CHANNELS 3 Xrotation Yrotation Zrotation
                            End Site
                            {
                                OFFSET   0.116353  -0.002500   0.000000
                            }
                        }
                    }
                }
            }
        }
    }
    JOINT rHip
    {
        OFFSET  -0.100000  -0.051395   0.000000
        CHANNELS 3 Xrotation Yrotation Zrotation
        JOINT rKnee
        {
            OFFSET   0.000000  -0.410000   0.000000
            CHANNELS 3 Xrotation Yrotation Zrotation
            JOINT rAnkle
            {
                OFFSET   0.000000  -0.390000   0.000000
                CHANNELS 3 Xrotation Yrotation Zrotation
                JOINT rToeJoint
                {
                    OFFSET   0.000000  -0.050000   0.130000
                    CHANNELS 3 Xrotation Yrotation Zrotation
                    End Site
                    {
                        OFFSET  -0.010000   0.002000   0.060000
                    }
                }
            }
        }
    }
    JOINT lHip
    {
        OFFSET   0.100000  -0.051395   0.000000
        CHANNELS 3 Xrotation Yrotation Zrotation
        JOINT lKnee
        {
            OFFSET   0.000000  -0.410000   0.000000
            CHANNELS 3 Xrotation Yrotation Zrotation
            JOINT lAnkle
            {
                OFFSET   0.000000  -0.390000   0.000000
                CHANNELS 3 Xrotation Yrotation Zrotation
                JOINT lToeJoint
                {
                    OFFSET   0.000000  -0.050000   0.130000
                    CHANNELS 3 Xrotation Yrotation Zrotation
                    End Site
                    {
                        OFFSET   0.010000   0.002000   0.060000
                    }
                }
            }
        }
    }
}
MOTION
Frames: 17
Frame Time:   0.008333
 -2.721658   0.921132   3.803661  20.228645 -12.167239  15.027548  -1.399375  -0.825086  -1.726455  -0.505500  -1.774899   0.122346  -4.776726  -5.465302   0.377198   1.814769 -16.677539  -4.461232  14.028270  -5.012800  54.914273  -0.000898  -0.043591  -0.001130   1.719937   1.040429   8.709246   5.475933  15.789728   5.914300  16.517266  -1.145589 -54.540324   0.021894   2.956600   0.001917   2.368918  -1.387537 -13.873899 -19.275810  -0.985602   0.978602   2.647848   0.001371   0.002166  -6.272099  -6.315294  -0.623757   1.626570  -0.000023  -0.000011 -14.037263  15.205192   4.993847  44.056832  -0.026564   0.019738  11.981232   7.876902 -13.769303  -4.414241  -0.018859   0.023503
 -2.724139   0.921416   3.802639  20.429667 -12.091458  15.371688  -1.567677  -0.907608  -2.067378  -0.466083  -1.923874  -0.007103  -4.683907  -5.395037   0.461497   1.756257 -17.096662  -4.743648  13.792310  -5.794072  54.053584  -0.000802  -0.034872  -0.000801   1.722947   0.850677   9.303907   5.253473  15.810378   6.296697  16.153125  -0.822532 -52.738290   0.025956   3.432879   0.003322   2.473651  -1.155684 -14.514669 -19.221286  -1.052973   0.823428   2.024833   0.001826   0.002536  -5.856335  -6.032317  -0.586727   1.542411   0.000091  -0.000104 -14.586665  15.110397   5.745881  44.499882  -0.024028   0.018257  11.438752   8.543945 -13.234942  -3.982619  -0.019266   0.023237
 -2.726791   0.921746   3.801373  20.598488 -11.989022  15.694627  -1.728682  -1.004774  -2.459253  -0.430876  -2.102963  -0.148347  -4.606884  -5.320139   0.544055   1.695626 -17.450904  -5.145200  13.548063  -6.515670  53.127210  -0.000724  -0.027896  -0.000560   1.710056   0.683967   9.764240   5.017381  15.729097   6.874242  15.773678  -0.555691 -50.827109   0.029313   3.863112   0.004010   2.554941  -0.961393 -14.829953 -19.142206  -1.095714   0.676680   1.382586   0.002221   0.002526  -5.380648  -5.749263  -0.503160   1.407989   0.000306  -0.000307 -15.156020  14.998534   6.487331  44.844443  -0.021264   0.016527  10.919528   9.167057 -12.725984  -3.613733  -0.018668   0.022211
 -2.729500   0.922102   3.799921  20.722732 -11.895896  15.999359  -1.863673  -1.121462  -2.871778  -0.376466  -2.301164  -0.303779  -4.543934  -5.248810   0.613845   1.630711 -17.741053  -5.624083  13.293242  -7.174147  52.172947  -0.000652  -0.022315  -0.000385   1.689820   0.560750  10.052100   4.786903  15.584568   7.556055  15.396272  -0.334741 -48.913519   0.031559   4.255186   0.004149   2.619659  -0.817803 -14.873317 -19.050945  -1.124391   0.542004   0.783957   0.002505   0.002390  -4.883349  -5.477260  -0.399072   1.224346   0.000603  -0.000564 -15.716243  14.882000   7.198181  45.140315  -0.018667   0.014797  10.427118   9.744371 -12.244095  -3.281734  -0.017624   0.020818
 -2.732211   0.922471   3.798335  20.808218 -11.829422  16.290762  -1.972825  -1.250086  -3.291076  -0.301178  -2.507100  -0.470421  -4.489721  -5.182160   0.673068   1.565738 -17.983043  -6.146418  13.034015  -7.776349  51.216001  -0.000583  -0.017850  -0.000259   1.663584   0.474870  10.204699   4.569223  15.404145   8.283126  15.028723  -0.151265 -47.045734   0.032697   4.615206   0.003962   2.673249  -0.708896 -14.743879 -18.952331  -1.145817   0.421325   0.237139   0.002690   0.002281  -4.378515  -5.220065  -0.284345   0.999388   0.000951  -0.000800 -16.256655  14.765494   7.866426  45.404119  -0.016330   0.013134   9.961445  10.279197 -11.788487  -2.980489  -0.016355   0.019200
 -2.734864   0.922379   3.796829  20.807204 -11.722796  16.609161  -2.069822  -1.415849  -3.749585  -0.192448  -2.738975  -0.661885  -4.439457  -5.121029   0.722052   1.518852 -18.209593  -6.709364  12.791473  -8.340992  50.269876  -0.000517  -0.014278  -0.000169   1.637308   0.397624  10.271325   4.371625  15.206426   9.050868  14.679053   0.004375 -45.235013   0.032968   4.948491   0.003705   2.720613  -0.622098 -14.512101 -18.809276  -1.170024   0.220021  -0.146170   0.002572   0.001946  -3.647186  -4.988447  -0.079994  -1.911542   0.008048  -0.005441 -16.732230  14.655856   8.444799  45.665704  -0.014304   0.011830   9.520883  10.774215 -11.358430  -2.712013  -0.014868   0.017593
 -2.737500   0.922729   3.794952  20.807000 -11.768079  16.834040  -2.078411  -1.534544  -4.118991  -0.078171  -2.928945  -0.827479  -4.400115  -5.062358   0.766701   1.455325 -18.375917  -7.241630  12.530601  -8.843592  49.355640  -0.000453  -0.011420  -0.000107   1.604592   0.351846  10.244888   4.181107  14.992579   9.754034  14.336326   0.126667 -43.536083   0.032308   5.254854   0.003207   2.759741  -0.551152 -14.217639 -18.896602  -1.134071   0.178624  -0.116930   0.002018   0.001535  -3.468057  -4.705453  -0.050005  -1.625527   0.005967  -0.003914 -17.214947  14.545890   9.069008  45.886833  -0.012511   0.010309   9.107536  11.234015 -10.952415  -2.455340  -0.013571   0.015820
 -2.740051   0.922133   3.793008  20.594392 -11.650906  16.834977  -1.956831  -1.684898  -4.165037  -0.042042  -3.226670  -1.106390  -4.278795  -5.118765   0.590950   1.248557 -18.472305  -7.911576  11.925538  -9.554193  47.773547  -0.000406  -0.009134  -0.000054   1.769265  -0.126738  10.930350   3.857967  14.795825  10.384657  13.862420   0.240649 -41.103995   0.039709   5.825559   0.004742   2.825393  -0.548698 -14.544339 -19.325658  -1.179696   0.250917   1.316809  -0.000618   0.002519  -4.550018  -4.787334  -0.316179  -1.358480   0.004890  -0.003134 -17.715633  14.305429   9.989573  46.042453  -0.010748   0.009140   8.829946  11.657031 -10.548791  -2.222073  -0.012277   0.014600
 -2.742547   0.920942   3.791104  20.222297 -11.401912  16.756938  -1.816143  -1.856842  -4.172363   0.036940  -3.539899  -1.369487  -4.168323  -5.178203   0.413561   1.039150 -18.462423  -8.738437  11.287848 -10.159398  46.074846  -0.000364  -0.007305  -0.000019   1.910884  -0.548889  11.319176   3.553990  14.500584  11.157356  13.390252   0.289633 -38.634228   0.045085   6.346764   0.006123   2.878430  -0.552537 -14.552638 -19.724300  -1.213219   0.332217   2.752905  -0.002893   0.005817  -5.751174  -4.836785  -0.629982  -1.125544   0.003994  -0.002063 -18.221334  14.021704  11.013015  46.124987  -0.008943   0.007917   8.567292  12.051949 -10.167754  -1.994597  -0.010933   0.013821
 -2.744934   0.919509   3.789239  19.782382 -11.120930  16.651733  -1.671786  -2.001021  -4.163951   0.133389  -3.824473  -1.614998  -4.074560  -5.233350   0.247054   0.831709 -18.371503  -9.636766  10.635068 -10.668594  44.355541  -0.000323  -0.005841   0.000002   2.027322  -0.860599  11.435875   3.275150  14.151639  11.985881  12.931287   0.287741 -36.223379   0.048095   6.820807   0.007225   2.914556  -0.605564 -14.316582 -20.056838  -1.275920   0.412067   4.189276  -0.004561   0.008858  -6.998731  -4.903699  -0.990764  -0.911364   0.003353  -0.001232 -18.753054  13.725275  12.066403  46.146428  -0.007229   0.006510   8.317864  12.419999  -9.809157  -1.784068  -0.009595   0.013072
 -2.747406   0.918672   3.787373  19.335847 -10.958490  16.463557  -1.495398  -2.068019  -4.092209   0.233478  -4.034025  -1.818597  -3.994005  -5.282867   0.094717   0.613626 -18.199334 -10.512253   9.964412 -11.078900  42.682783  -0.000283  -0.004671   0.000015   2.116038  -1.055796  11.369494   3.021934  13.784188  12.774289  12.493698   0.249388 -33.937779   0.048924   7.256004   0.007899   2.939050  -0.688801 -13.946095 -20.445060  -1.424449   0.626393   5.717939  -0.006340   0.009557  -7.773474  -5.051263  -1.259427  -0.727050   0.002726  -0.000998 -19.299615  13.415114  13.187813  46.095348  -0.005560   0.004867   8.082558  12.763356  -9.471833  -1.581145  -0.008448   0.012194
 -2.749788   0.917855   3.785770  18.821338 -10.781624  16.342178  -1.324928  -2.129498  -4.084715   0.354937  -4.220227  -2.034880  -3.918028  -5.329643  -0.049094   0.408601 -18.000739 -11.391332   9.309567 -11.424533  41.075957  -0.000246  -0.003734   0.000022   2.186193  -1.170555  11.249056   2.798963  13.418867  13.567140  12.085493   0.190064 -31.767137   0.048333   7.658258   0.008387   2.957435  -0.796413 -13.543162 -20.729202  -1.584077   0.737616   7.194010  -0.007399   0.010032  -8.543404  -5.195335  -1.503448  -0.546213   0.002213  -0.000808 -19.808340  13.109437  14.189041  46.038930  -0.004227   0.003517   7.858672  13.082430  -9.154668  -1.404276  -0.007306   0.011225
 -2.752084   0.917004   3.784407  18.273838 -10.608578  16.261501  -1.166975  -2.171073  -4.098414   0.478608  -4.380037  -2.257404  -3.851159  -5.373176  -0.186977   0.221473 -17.789952 -12.254887   8.678474 -11.718010  39.536047  -0.000211  -0.002985   0.000025   2.244044  -1.238019  11.078975   2.604246  13.067720  14.336411  11.708282   0.118429 -29.718890   0.046732   8.032752   0.008730   2.973615  -0.910631 -13.120787 -20.934365  -1.743072   0.791617   8.603525  -0.007957   0.010236  -9.293748  -5.331564  -1.742333  -0.380420   0.001813  -0.000654 -20.310181  12.815448  15.116549  45.983623  -0.003183   0.002445   7.647257  13.378819  -8.857363  -1.245900  -0.006246   0.010259
 -2.754451   0.917474   3.782747  18.168352 -10.546070  16.368640  -1.166063  -2.059459  -4.333982   0.133856  -4.428504  -2.484882  -3.599675  -5.375239  -0.112783  -0.103359 -17.638882 -13.085362   8.021656 -11.939095  37.518124  -0.000182  -0.002386   0.000028   2.319733  -1.312744  11.464856   2.240201  12.682298  15.183700  10.741395   0.216459 -27.157288   0.048045   8.487208   0.013348   3.118104  -0.767165 -13.253149 -20.653720  -1.904313   0.818740   8.036672  -0.005535   0.008608  -8.725136  -5.259447  -1.840875   0.010326   0.001277  -0.000691 -21.046616  12.237439  15.554825  45.750677  -0.001537   0.001781   6.887938  13.682980  -8.322990  -1.110958  -0.005591   0.008405
 -2.756742   0.918469   3.780671  18.168099 -10.626933  16.567904  -1.173150  -1.906557  -4.674913  -0.240431  -4.433830  -2.744625  -3.397952  -5.370661  -0.039586  -0.408185 -17.393006 -14.015442   7.351274 -12.063821  35.503633  -0.000157  -0.001907   0.000029   2.349505  -1.230150  11.738607   1.909483  12.235061  16.168204   9.819997   0.234021 -24.601851   0.048364   8.894847   0.015948   3.215435  -0.678182 -13.240600 -20.328061  -1.953007   0.810687   7.125595  -0.003237   0.008195  -7.783351  -5.102911  -1.749955   0.376406   0.000382  -0.000644 -21.815277  11.685810  15.744778  45.513581  -0.000303   0.001811   6.164561  13.957606  -7.816723  -1.051628  -0.004694   0.006672
 -2.759005   0.919652   3.778300  18.156594 -10.790466  16.787573  -1.140576  -1.763047  -5.053810  -0.552254  -4.429407  -3.022256  -3.226741  -5.366062   0.019344  -0.678361 -17.089677 -14.996994   6.692812 -12.119118  33.528807  -0.000135  -0.001524   0.000028   2.349666  -1.033735  11.860963   1.623366  11.758039  17.216243   8.957906   0.191161 -22.110727   0.047771   9.265249   0.017026   3.293209  -0.646709 -13.052750 -19.996054  -1.976730   0.803156   6.196768  -0.001366   0.008374  -6.696865  -4.937699  -1.575872   0.711860  -0.000495  -0.000713 -22.560081  11.182996  15.802232  45.301192   0.000443   0.002016   5.485272  14.206071  -7.340730  -1.006445  -0.003888   0.005247
 -2.761265   0.920831   3.775740  18.104275 -10.982150  16.999640  -1.068089  -1.648812  -5.442057  -0.788847  -4.434884  -3.304568  -3.073109  -5.362351   0.067205  -0.907216 -16.769817 -16.000296   6.065589 -12.132211  31.612098  -0.000116  -0.001217   0.000026   2.335743  -0.783019  11.852772   1.378791  11.274311  18.284011   8.156376   0.103421 -19.713328   0.046408   9.604736   0.017118   3.359982  -0.650790 -12.736969 -19.653871  -1.975281   0.797640   5.317907   0.000021   0.008371  -5.587367  -4.756490  -1.366827  -0.153639   0.001922  -0.000274 -23.279126  10.723884  15.775622  45.110375   0.000825   0.002193   4.848259  14.431527  -6.893914  -0.968714  -0.003188   0.004105
